<?xml version="1.0" encoding="utf-8"?>
<!-- Generator: Adobe Illustrator 24.0.3, SVG Export Plug-In . SVG Version: 6.00 Build 0)  -->
<svg version="1.1" id="Camada_1" xmlns="http://www.w3.org/2000/svg" xmlns:xlink="http://www.w3.org/1999/xlink" x="0px" y="0px"
	 viewBox="0 0 1920 1080" style="enable-background:new 0 0 1920 1080;" xml:space="preserve">
<style type="text/css">
	.st0{fill:#00397E;}
	.st1{fill:#008ACD;}
</style>
<g>
	<g>
		<path class="st0" d="M335.24,586.56c5.63,3.1,9.12,9.06,9.12,15.53c0,15.47,12.59,28.06,28.06,28.06h30.78
			c15.47,0,28.06-12.59,28.06-28.06c0-6.48,3.45-12.41,9.01-15.47c39.73-21.84,62.15-64.75,57.11-109.32
			c-5.93-52.49-50.17-94.38-102.9-97.46c-63.79-3.73-116.91,47.03-116.91,109.92C277.58,529.86,299.67,566.95,335.24,586.56z
			 M387.89,389.91c1.98,0,3.98,0.06,5.99,0.18c47.81,2.79,87.93,40.78,93.31,88.37c4.57,40.42-15.79,79.35-51.86,99.18
			c-8.84,4.86-14.33,14.23-14.33,24.46c0,9.82-7.99,17.8-17.8,17.8h-30.78c-9.82,0-17.8-7.99-17.8-17.81
			c0-10.21-5.53-19.6-14.43-24.51c-32.3-17.8-52.36-51.45-52.36-87.81C287.83,434.71,332.72,389.91,387.89,389.91z"/>
		<path class="st0" d="M364.18,665.15c0.18,0,0.37-0.01,0.56-0.04l46.62-6.09c2.34-0.31,3.99-2.45,3.68-4.79
			c-0.3-2.34-2.43-4-4.79-3.68l-46.62,6.09c-2.34,0.31-3.99,2.45-3.68,4.79C360.23,663.59,362.06,665.15,364.18,665.15z"/>
		<path class="st0" d="M364.18,650.4c0.18,0,0.37-0.01,0.56-0.04l46.62-6.09c2.34-0.31,3.99-2.45,3.68-4.79
			c-0.3-2.34-2.43-4-4.79-3.68l-46.62,6.09c-2.34,0.31-3.99,2.45-3.68,4.79C360.23,648.83,362.06,650.4,364.18,650.4z"/>
		<path class="st0" d="M364.18,679.91c0.18,0,0.37-0.01,0.56-0.04l46.62-6.09c2.34-0.31,3.99-2.45,3.68-4.79
			c-0.3-2.34-2.43-4-4.79-3.68l-46.62,6.09c-2.34,0.31-3.99,2.45-3.68,4.79C360.23,678.34,362.06,679.91,364.18,679.91z"/>
		<path class="st0" d="M387.49,700.35c7.1,0,12.89-5.19,12.89-11.56v-4.28c0-0.49-0.21-0.96-0.58-1.28
			c-0.37-0.32-0.85-0.47-1.34-0.41l-22.35,2.81c-0.85,0.11-1.5,0.83-1.5,1.7v1.46C374.61,695.16,380.39,700.35,387.49,700.35z"/>
		<g>
			<g>
				<g>
					<path class="st1" d="M387.25,575.52c-8.33,0-15.55-8.48-20.9-24.51c-4.93-14.8-7.65-34.42-7.65-55.25
						c0-20.83,2.72-40.45,7.65-55.25c5.35-16.04,12.57-24.51,20.9-24.51s15.55,8.48,20.9,24.51c4.93,14.8,7.65,34.42,7.65,55.25
						c0,20.83-2.72,40.45-7.65,55.25C402.8,567.04,395.57,575.52,387.25,575.52z M387.25,421.89c-10.72,0-22.66,30.34-22.66,73.87
						s11.94,73.87,22.66,73.87c10.72,0,22.66-30.34,22.66-73.87S397.97,421.89,387.25,421.89z"/>
				</g>
				<g>
					<path class="st1" d="M335.9,543.08c-8.84,0-14.87-2.5-17.72-7.44c-4.16-7.21-0.44-17.71,10.78-30.36
						c10.35-11.67,25.98-23.84,44.02-34.25c18.04-10.41,36.39-17.87,51.67-21c16.56-3.39,27.51-1.37,31.68,5.84
						c4.16,7.21,0.44,17.71-10.78,30.35c-10.35,11.67-25.98,23.84-44.02,34.25c-18.04,10.41-36.39,17.87-51.67,21
						C344.63,542.55,339.97,543.08,335.9,543.08z M438.5,454.35c-3.65,0-7.92,0.48-12.68,1.45c-14.68,3-32.4,10.22-49.91,20.33
						c-37.7,21.77-58,47.28-52.64,56.56c2.66,4.6,12.15,5.73,25.4,3.02c14.68-3,32.41-10.22,49.91-20.33
						c37.7-21.77,58-47.28,52.64-56.56C449.52,455.88,445.01,454.35,438.5,454.35z"/>
				</g>
				<g>
					<path class="st1" d="M438.6,543.08c-4.07,0-8.73-0.53-13.95-1.6c-15.28-3.13-33.63-10.59-51.67-21
						c-18.03-10.41-33.67-22.58-44.02-34.25c-11.21-12.65-14.94-23.14-10.78-30.35c4.16-7.21,15.12-9.23,31.68-5.84
						c15.28,3.13,33.63,10.59,51.67,21c18.03,10.41,33.67,22.58,44.02,34.25c11.21,12.65,14.94,23.14,10.78,30.36
						C453.47,540.57,447.43,543.08,438.6,543.08z M335.99,454.35c-6.51,0-11.01,1.52-12.72,4.47c-5.36,9.28,14.94,34.79,52.64,56.56
						c17.5,10.1,35.22,17.32,49.91,20.33c13.24,2.71,22.74,1.58,25.4-3.02c5.36-9.28-14.94-34.79-52.64-56.56
						c-17.5-10.1-35.22-17.32-49.91-20.33C343.91,454.83,339.64,454.35,335.99,454.35z"/>
				</g>
				<g>
					<circle class="st0" cx="387.44" cy="495.99" r="9.6"/>
				</g>
			</g>
		</g>
	</g>
	<g>
		<path class="st0" d="M694.04,606.54c-4.64,3.68-9.71,6.83-15.23,9.47s-11.55,4.64-18.1,6c-6.56,1.36-13.91,2.04-22.06,2.04
			c-12.31,0-23.74-2.24-34.29-6.71s-19.66-10.59-27.34-18.34c-7.67-7.75-13.67-16.91-17.98-27.46c-4.32-10.55-6.47-21.82-6.47-33.81
			v-0.48c0-11.99,2.16-23.22,6.47-33.69c4.32-10.47,10.31-19.66,17.98-27.58c7.67-7.91,16.86-14.15,27.58-18.7
			c10.71-4.56,22.54-6.83,35.49-6.83c7.83,0,14.99,0.64,21.46,1.92c6.47,1.28,12.35,3.04,17.63,5.28
			c5.28,2.24,10.15,4.96,14.63,8.15c4.47,3.2,8.63,6.71,12.47,10.55l-23.5,27.1c-6.56-5.91-13.23-10.55-20.02-13.91
			c-6.8-3.36-14.43-5.04-22.9-5.04c-7.04,0-13.55,1.36-19.54,4.08c-6,2.72-11.15,6.47-15.47,11.27s-7.67,10.35-10.07,16.67
			c-2.4,6.32-3.6,13.07-3.6,20.26v0.48c0,7.19,1.2,13.99,3.6,20.38c2.4,6.4,5.71,11.99,9.95,16.79c4.23,4.8,9.35,8.6,15.35,11.39
			c6,2.8,12.59,4.2,19.78,4.2c9.59,0,17.7-1.76,24.34-5.28c6.63-3.51,13.23-8.31,19.78-14.39l23.5,23.74
			C703.15,598.71,698.67,602.87,694.04,606.54z"/>
		<path class="st0" d="M736.96,621.17V453.31h126.37v32.85h-89.92v34.05h79.13v32.85h-79.13v35.25h91.12v32.85H736.96z"/>
		<path class="st0" d="M999.54,621.17l-35.97-53.71h-29.02v53.71h-36.93V453.31h76.73c19.98,0,35.53,4.88,46.64,14.63
			c11.11,9.75,16.67,23.34,16.67,40.77v0.48c0,13.59-3.32,24.66-9.95,33.21c-6.63,8.55-15.31,14.83-26.02,18.82l41,59.95H999.54z
			 M1000.26,510.62c0-7.99-2.56-13.99-7.67-17.98c-5.12-3.99-12.23-6-21.34-6h-36.69v48.2h37.41c9.11,0,16.1-2.16,20.98-6.47
			c4.88-4.32,7.31-10.07,7.31-17.27V510.62z"/>
		<path class="st0" d="M1072.67,621.17V453.31h36.93v167.86H1072.67z"/>
		<path class="st0" d="M1156.36,621.17V453.31h12.47V609.9h98.56v11.27H1156.36z"/>
		<path class="st0" d="M1445.08,621.17l-21.34-47h-99.04l-21.34,47h-12.95l78.17-169.06h11.99l78.17,169.06H1445.08z
			 M1374.34,465.78l-44.36,97.12h88.49L1374.34,465.78z"/>
		<path class="st0" d="M1622.77,594.48c-2.87,5.67-6.94,10.45-12.21,14.36c-5.27,3.91-11.57,6.94-18.91,9.1
			c-7.34,2.16-15.56,3.23-24.65,3.23h-72.77V453.31h69.17c8.14,0,15.56,0.96,22.26,2.89c6.7,1.92,12.41,4.68,17.11,8.29
			s8.38,7.97,11.01,13.09c2.63,5.13,3.95,10.81,3.95,17.06v0.48c0,5.77-0.84,10.81-2.51,15.14c-1.67,4.32-3.87,8.09-6.58,11.29
			c-2.71,3.2-5.78,5.89-9.21,8.05c-3.43,2.16-6.82,3.96-10.17,5.4c4.95,1.28,9.73,2.99,14.36,5.15c4.63,2.15,8.66,4.87,12.09,8.14
			c3.43,3.27,6.18,7.1,8.26,11.49c2.08,4.39,3.11,9.46,3.11,15.2v0.48C1627.08,582.47,1625.64,588.82,1622.77,594.48z
			 M1605.26,495.74c0-9.34-3.6-16.87-10.79-22.58c-7.19-5.72-17.59-8.58-31.17-8.58h-56.59v66.42h55.39
			c6.23,0,11.99-0.76,17.26-2.29c5.28-1.53,9.83-3.74,13.67-6.64c3.84-2.9,6.83-6.52,8.99-10.87s3.24-9.34,3.24-14.98V495.74z
			 M1614.61,575c0-10.43-4.36-18.49-13.07-24.19c-8.71-5.7-21.38-8.54-38.01-8.54h-56.83v67.62h60.91c14.39,0,25.82-3.09,34.29-9.27
			c8.47-6.17,12.71-14.56,12.71-25.15V575z"/>
	</g>
</g>
</svg>
